<?xml version="1.0" encoding="iso-8859-1"?>
<!-- Generator: Adobe Illustrator 19.0.0, SVG Export Plug-In . SVG Version: 6.00 Build 0)  -->
<svg version="1.1" id="Capa_1" xmlns="http://www.w3.org/2000/svg" xmlns:xlink="http://www.w3.org/1999/xlink" x="0px" y="0px"
	 viewBox="0 0 512.005 512.005" style="enable-background:new 0 0 512.005 512.005;" xml:space="preserve">
<g>
	<g>
		<path style="fill:#F3D55B;" d="M97.106,291.31h-35.31c-4.875,0-8.828-3.952-8.828-8.828s3.952-8.828,8.828-8.828h35.31
			c4.875,0,8.828,3.952,8.828,8.828S101.981,291.31,97.106,291.31z"/>
		<path style="fill:#F3D55B;" d="M459.037,291.31h-35.31c-4.875,0-8.828-3.952-8.828-8.828s3.952-8.828,8.828-8.828h35.31
			c4.875,0,8.828,3.952,8.828,8.828S463.912,291.31,459.037,291.31z"/>
		<path style="fill:#F3D55B;" d="M194.209,97.897c-2.342,0.001-4.588-0.928-6.244-2.584c-1.656-1.656-2.585-3.902-2.584-6.244V35.31
			c0-4.875,3.952-8.828,8.828-8.828s8.828,3.952,8.828,8.828v53.759c0.001,2.342-0.928,4.588-2.584,6.244
			C198.797,96.968,196.551,97.898,194.209,97.897z"/>
		<path style="fill:#F3D55B;" d="M317.796,97.897c-2.342,0.001-4.588-0.928-6.244-2.584c-1.656-1.656-2.585-3.902-2.584-6.244V35.31
			c0-4.875,3.952-8.828,8.828-8.828s8.828,3.952,8.828,8.828v53.759c0.001,2.342-0.928,4.588-2.584,6.244
			C322.383,96.968,320.137,97.898,317.796,97.897z"/>
		<path style="fill:#F3D55B;" d="M326.623,194.207c0,39.003-31.618,70.621-70.621,70.621s-70.621-31.618-70.621-70.621
			c-0.041-12.412,3.252-24.606,9.535-35.31c12.583-21.847,35.875-35.31,61.086-35.31s48.503,13.464,61.086,35.31
			C323.372,169.6,326.664,181.795,326.623,194.207z"/>
		<path style="fill:#F3D55B;" d="M209.305,247.172h-41.578c-9.293,0.387-17.166-6.778-17.655-16.066v-56.143
			c0.489-9.288,8.362-16.453,17.655-16.066h27.19c-6.283,10.704-9.576,22.899-9.535,35.31
			C185.356,214.483,194.075,233.786,209.305,247.172z"/>
		<path style="fill:#F3D55B;" d="M150.072,176.552v52.966H47.583c2.399-17.883,6.027-35.58,10.858-52.966H150.072z"/>
		<path style="fill:#F3D55B;" d="M361.934,174.963v56.143c-0.489,9.288-8.362,16.453-17.655,16.066h-41.578
			c15.23-13.386,23.948-32.689,23.923-52.966c0.041-12.412-3.252-24.606-9.534-35.31h27.19
			C353.572,158.51,361.445,165.674,361.934,174.963z"/>
		<path style="fill:#F3D55B;" d="M464.422,229.517H361.934v-52.966h91.63C458.395,193.937,462.022,211.634,464.422,229.517z"/>
		<path style="fill:#F3D55B;" d="M467.865,282.483c0.17-17.716-0.981-35.42-3.443-52.966c-2.399-17.883-6.027-35.58-10.858-52.966
			C436.35,116.348,398.921,48.64,317.796,25.688v-8.033C317.767,7.916,309.879,0.028,300.141,0h-88.276
			c-9.739,0.028-17.627,7.916-17.655,17.655v8.033C113.084,48.64,75.656,116.348,58.441,176.552
			c-4.831,17.385-8.459,35.082-10.858,52.966c-2.462,17.545-3.613,35.249-3.443,52.966c-24.377,0-44.138,19.761-44.138,44.138
			c0,24.377,19.761,44.138,44.138,44.138h8.828l150.069,88.276c0,29.252,23.713,52.966,52.966,52.966s52.966-23.713,52.966-52.966
			l150.069-88.276h8.828c24.377,0,44.138-19.761,44.138-44.138C512.003,302.244,492.241,282.483,467.865,282.483z M256.003,476.69
			c-9.751,0-17.655-7.905-17.655-17.655s7.904-17.655,17.655-17.655c9.751,0,17.655,7.905,17.655,17.655
			C273.629,468.773,265.741,476.661,256.003,476.69z M293.961,422.135c-9.959-10.27-23.654-16.066-37.959-16.066
			c-14.305,0-28,5.796-37.959,16.066l-85.627-51.377h247.172L293.961,422.135z"/>
	</g>
	<g>
		<path style="fill:#F18D46;" d="M97.106,291.31h-35.31c-4.875,0-8.828-3.952-8.828-8.828s3.952-8.828,8.828-8.828h35.31
			c4.875,0,8.828,3.952,8.828,8.828S101.981,291.31,97.106,291.31z"/>
		<path style="fill:#F18D46;" d="M459.037,291.31h-35.31c-4.875,0-8.828-3.952-8.828-8.828s3.952-8.828,8.828-8.828h35.31
			c4.875,0,8.828,3.952,8.828,8.828S463.912,291.31,459.037,291.31z"/>
		<path style="fill:#F18D46;" d="M194.209,105.138c-2.342,0.001-4.588-0.928-6.244-2.584c-1.656-1.656-2.585-3.902-2.584-6.244
			V42.552c0-4.875,3.952-8.828,8.828-8.828s8.828,3.952,8.828,8.828V96.31c0.001,2.342-0.928,4.588-2.584,6.244
			C198.797,104.21,196.551,105.139,194.209,105.138z"/>
		<path style="fill:#F18D46;" d="M317.796,105.931c-2.342,0.001-4.588-0.928-6.244-2.584c-1.656-1.656-2.585-3.902-2.584-6.244
			V43.345c0-4.875,3.952-8.828,8.828-8.828s8.828,3.952,8.828,8.828v53.759c0.001,2.342-0.928,4.588-2.584,6.244
			C322.383,105.003,320.137,105.932,317.796,105.931z"/>
		<path style="fill:#F18D46;" d="M326.623,194.207c0,39.003-31.618,70.621-70.621,70.621s-70.621-31.618-70.621-70.621
			c-0.041-12.412,3.252-24.606,9.535-35.31c12.583-21.847,35.875-35.31,61.086-35.31s48.503,13.464,61.086,35.31
			C323.372,169.6,326.664,181.795,326.623,194.207z"/>
	</g>
	<path style="fill:#F9EAB0;" d="M209.305,247.172h-41.578c-9.293,0.387-17.166-6.778-17.655-16.066v-56.143
		c0.489-9.288,8.362-16.453,17.655-16.066h27.19c-6.283,10.704-9.576,22.899-9.535,35.31
		C185.356,214.483,194.075,233.786,209.305,247.172z"/>
	<path style="fill:#95A5A5;" d="M150.072,176.552v52.966H47.583c2.399-17.883,6.027-35.58,10.858-52.966H150.072z"/>
	<path style="fill:#F9EAB0;" d="M361.934,174.963v56.143c-0.489,9.288-8.362,16.453-17.655,16.066h-41.578
		c15.23-13.386,23.948-32.689,23.923-52.966c0.041-12.412-3.252-24.606-9.534-35.31h27.19
		C353.572,158.51,361.445,165.674,361.934,174.963z"/>
	<path style="fill:#95A5A5;" d="M464.422,229.517H361.934v-52.966h91.63C458.395,193.937,462.022,211.634,464.422,229.517z"/>
	<g>
		<path style="fill:#F18D46;" d="M218.044,422.135c-9.65,9.855-15.039,23.107-15.007,36.899L52.968,370.759h79.448L218.044,422.135z
			"/>
		<path style="fill:#F18D46;" d="M459.037,370.759l-150.069,88.276c0.032-13.792-5.357-27.045-15.007-36.899l85.628-51.377H459.037z
			"/>
	</g>
	<path style="fill:#95A5A5;" d="M293.962,422.135c-17.665-18.146-45.708-21.238-66.903-7.379
		c-21.195,13.86-29.606,40.79-20.065,64.249c9.54,23.459,34.359,36.875,59.211,32.008c24.852-4.867,42.777-26.654,42.764-51.979
		C308.961,445.25,303.577,432.012,293.962,422.135z M256.003,476.69c-9.751,0-17.655-7.905-17.655-17.655
		s7.904-17.655,17.655-17.655c9.751,0,17.655,7.905,17.655,17.655C273.629,468.773,265.741,476.661,256.003,476.69z"/>
</g>
<g>
</g>
<g>
</g>
<g>
</g>
<g>
</g>
<g>
</g>
<g>
</g>
<g>
</g>
<g>
</g>
<g>
</g>
<g>
</g>
<g>
</g>
<g>
</g>
<g>
</g>
<g>
</g>
<g>
</g>
</svg>
